Coordinates
version=1
nRows=11
nColumns=40
inDegrees=yes

Units are S.I. units (second, meters, Newtons, ...)
If the header above contains a line with 'inDegrees', this indicates whether rotational values are in degrees (yes) or radians (no).

endheader
time	pelvis_tilt	pelvis_list	pelvis_rotation	pelvis_tx	pelvis_ty	pelvis_tz	hip_flexion_r	hip_adduction_r	hip_rotation_r	knee_angle_r	knee_angle_r_beta	ankle_angle_r	subtalar_angle_r	mtp_angle_r	hip_flexion_l	hip_adduction_l	hip_rotation_l	knee_angle_l	knee_angle_l_beta	ankle_angle_l	subtalar_angle_l	mtp_angle_l	lumbar_extension	lumbar_bending	lumbar_rotation	arm_flex_r	arm_add_r	arm_rot_r	elbow_flex_r	pro_sup_r	wrist_flex_r	wrist_dev_r	arm_flex_l	arm_add_l	arm_rot_l	elbow_flex_l	pro_sup_l	wrist_flex_l	wrist_dev_l
      9.27000000	      2.65529040	      3.89045127	     -2.73607957	      0.22967902	      0.97238451	     -0.01971286	     19.03218218	     -5.91051765	     -7.25297496	      4.82574565	      0.08422515	     -6.46253638	      0.00000000	     -7.49728769	    -11.31761984	      6.51630590	     -8.72532287	      5.74091330	      0.10019784	      6.97338649	     -4.75823796	     -7.49728769	     -8.79929375	     -4.38931731	     -1.06629870	     -9.98757238	      7.35149833	    -32.39249675	     48.97771252	     64.56365614	      0.00000000	      0.00000000	      2.77337201	     -3.35644452	    -11.90060232	     46.19682269	     66.35390625	      0.00000000	      0.00000000
      9.28000000	      2.63360986	      3.83690992	     -2.67530055	      0.23763201	      0.97128631	     -0.01899110	     19.39976954	     -5.79627332	     -7.79317814	      5.42765332	      0.09473042	     -6.36663772	      0.00000000	     -7.49732361	    -11.66355964	      6.38528253	     -8.90376901	      6.10948292	      0.10663059	      7.16229615	     -4.74167542	     -7.49732361	     -8.77037428	     -4.21854635	     -0.98139047	    -10.07308668	      7.27959885	    -32.45172211	     48.97734926	     64.55664017	      0.00000000	      0.00000000	      2.53990167	     -3.16540708	    -11.84485769	     46.10858661	     66.32671038	      0.00000000	      0.00000000
      9.29000000	      2.71416758	      3.74193610	     -2.59779745	      0.24558581	      0.97030981	     -0.01822416	     19.63822503	     -5.66782253	     -7.82339166	      6.31223236	      0.11016924	     -6.40202033	      0.00000000	     -7.49733332	    -12.12159675	      6.21494321	     -8.77807596	      6.42500153	      0.11213743	      7.27325730	     -4.73683935	     -7.49733332	     -8.88976249	     -3.98810836	     -0.96023424	    -10.14863844	      7.25400865	    -32.48520838	     48.93508743	     64.55718839	      0.00000000	      0.00000000	      2.41728475	     -3.06266066	    -11.81744007	     46.03233147	     66.32002060	      0.00000000	      0.00000000
      9.30000000	      2.55532461	      3.80694140	     -2.51679944	      0.25351716	      0.96897363	     -0.01740881	     20.24646630	     -5.74974262	     -7.80410775	      7.66864904	      0.13384317	     -6.99473008	      0.00000000	     -7.49746521	    -12.23618461	      6.17438149	     -8.79093061	      6.89247625	      0.12029640	      8.69593635	     -4.65627455	     -7.49746521	     -8.69983265	     -3.94092668	     -0.95751918	    -10.08209900	      7.21345338	    -32.70819352	     48.73979383	     64.58801012	      0.00000000	      0.00000000	      2.25579832	     -2.83829241	    -11.76004721	     45.57241011	     66.24992808	      0.00000000	      0.00000000
      9.31000000	      2.71453592	      3.68072818	     -2.35086601	      0.26173500	      0.96819672	     -0.01653800	     20.29562575	     -5.63055386	     -7.33195368	      8.96891637	      0.15653712	     -7.10819172	      0.00000000	     -7.49747406	    -12.72203497	      5.91487955	     -8.64964777	      7.35716331	      0.12840672	      8.72057106	     -4.62197923	     -7.49747406	     -8.90136791	     -3.68230143	     -1.00628137	    -10.20908895	      7.19544531	    -32.75107577	     48.67609964	     64.58745582	      0.00000000	      0.00000000	      2.11323402	     -2.72981650	    -11.73616675	     45.48656002	     66.24257672	      0.00000000	      0.00000000
      9.32000000	      2.66357335	      3.76195643	     -2.34434384	      0.26994874	      0.96703980	     -0.01537819	     20.69021252	     -5.64625008	     -6.55919173	     10.39410651	      0.18141138	     -8.33187256	      0.00000000	     -7.49770396	    -12.92240581	      5.86626669	     -8.97641800	      7.92346055	      0.13829047	      9.66156648	     -3.97439011	     -7.49770396	     -8.79939788	     -3.67374101	     -1.06147248	     -9.98142455	      7.20013355	    -33.15323148	     48.28867313	     64.65957240	      0.00000000	      0.00000000	      1.84770353	     -2.49952215	    -11.80956513	     44.84661320	     66.10698742	      0.00000000	      0.00000000
      9.33000000	      2.73010242	      3.70875261	     -2.20463353	      0.27836195	      0.96625465	     -0.01423940	     20.79562204	     -5.51967353	     -5.96465794	     11.53356225	      0.20129864	     -8.42498153	      0.00000000	     -7.49773657	    -13.23243615	      5.60639081	     -9.29594730	      8.59459436	      0.15000397	      9.73848740	     -3.88980717	     -7.49773657	     -8.83671625	     -3.50300368	     -1.17064583	    -10.01667343	      7.18277702	    -33.22882665	     48.23334769	     64.67178435	      0.00000000	      0.00000000	      1.52851615	     -2.30852073	    -11.78944269	     44.64992412	     66.08461551	      0.00000000	      0.00000000
      9.34000000	      2.82121613	      3.50359782	     -1.98283188	      0.28699556	      0.96597014	     -0.01307340	     20.76216889	     -5.23286218	     -5.49003178	     12.52136837	      0.21853910	     -8.49278872	      0.00000000	     -7.49774430	    -13.57981182	      5.15289989	     -9.32445375	      9.25209568	      0.16147953	      9.75268377	     -3.84860438	     -7.49774430	     -8.90170690	     -3.17593812	     -1.20132881	    -10.16607104	      7.18411594	    -33.27120318	     48.15559113	     64.67208528	      0.00000000	      0.00000000	      1.29500819	     -2.20845975	    -11.78053483	     44.52758737	     66.07390504	      0.00000000	      0.00000000
      9.35000000	      2.88705083	      3.37254794	     -1.74883141	      0.29559704	      0.96557531	     -0.01179706	     20.69459544	     -5.02635019	     -5.09082865	     13.41362666	      0.23411195	     -8.58543916	      0.00000000	     -7.49775319	    -13.82790099	      4.73063985	     -9.50376756	     10.00830980	      0.17467796	      9.78114134	     -3.78682042	     -7.49775319	     -8.92846123	     -2.93447254	     -1.29281360	    -10.31074960	      7.16805119	    -33.32531071	     48.07400288	     64.67177531	      0.00000000	      0.00000000	      0.96327838	     -2.02813508	    -11.75842207	     44.33995869	     66.05854890	      0.00000000	      0.00000000
      9.36000000	      2.73325072	      3.13549598	     -1.50687356	      0.30421602	      0.96518660	     -0.01041742	     20.77545377	     -4.72396007	     -4.83132697	     14.20373243	      0.24790190	     -8.77915467	      0.00000000	     -7.49777956	    -13.71559608	      4.09269913	    -10.08930377	     11.04235671	      0.19272548	      9.91838668	     -3.51887275	     -7.49777956	     -8.66615174	     -2.59185585	     -1.60949965	    -10.33807550	      7.10934791	    -33.43345585	     47.96379282	     64.67662737	      0.00000000	      0.00000000	      0.34832762	     -1.69221572	    -11.74053420	     43.87942012	     66.01570789	      0.00000000	      0.00000000
      9.37000000	      2.57976611	      2.91737190	     -1.13943360	      0.31300309	      0.96498020	     -0.00930275	     20.78209584	     -4.52495466	     -4.82150056	     14.95579424	      0.26102785	     -8.99832403	      0.00000000	     -7.49782738	    -13.60337561	      3.48936932	    -10.21658427	     12.01315532	      0.20966911	     10.13806222	     -2.91542675	     -7.49782738	     -8.39173214	     -2.13701492	     -2.00885148	    -10.29643746	      7.10689922	    -33.58937027	     47.73694451	     64.69037798	      0.00000000	      0.00000000	     -0.21692713	     -1.50597827	    -11.83184450	     43.22715890	     65.94207637	      0.00000000	      0.00000000
